<mxfile host="app.diagrams.net" agent="Mozilla/5.0 (Windows NT 10.0; Win64; x64; rv:130.0) Gecko/20100101 Firefox/130.0" version="24.7.16">
  <diagram name="第 1 页" id="zCZdJIaw3_ZvLq5_sB6d">
    <mxGraphModel dx="3486" dy="1439" grid="1" gridSize="10" guides="1" tooltips="1" connect="1" arrows="1" fold="1" page="1" pageScale="1" pageWidth="827" pageHeight="1169" math="0" shadow="0">
      <root>
        <mxCell id="0" />
        <mxCell id="1" parent="0" />
        <mxCell id="tDF0fSocdjsi6N1dQKBj-62" value="" style="rounded=0;whiteSpace=wrap;html=1;fillColor=#f5f5f5;fontColor=#333333;strokeColor=#666666;" parent="1" vertex="1">
          <mxGeometry x="-70" y="140" width="2130" height="550" as="geometry" />
        </mxCell>
        <mxCell id="tDF0fSocdjsi6N1dQKBj-3" value="" style="endArrow=classic;html=1;rounded=0;strokeWidth=3;entryX=-0.003;entryY=0.561;entryDx=0;entryDy=0;entryPerimeter=0;" parent="1" source="tDF0fSocdjsi6N1dQKBj-4" target="tDF0fSocdjsi6N1dQKBj-6" edge="1">
          <mxGeometry width="50" height="50" relative="1" as="geometry">
            <mxPoint x="-70" y="520" as="sourcePoint" />
            <mxPoint x="250" y="520" as="targetPoint" />
          </mxGeometry>
        </mxCell>
        <mxCell id="tDF0fSocdjsi6N1dQKBj-5" value="" style="endArrow=classic;html=1;rounded=0;strokeWidth=3;" parent="1" target="tDF0fSocdjsi6N1dQKBj-4" edge="1">
          <mxGeometry width="50" height="50" relative="1" as="geometry">
            <mxPoint x="-70" y="520" as="sourcePoint" />
            <mxPoint x="250" y="520" as="targetPoint" />
          </mxGeometry>
        </mxCell>
        <mxCell id="tDF0fSocdjsi6N1dQKBj-4" value="&lt;div style=&quot;font-size: 23px;&quot;&gt;&lt;font color=&quot;#ff0000&quot; style=&quot;font-size: 23px;&quot;&gt;kube-scheduler&lt;/font&gt;&lt;/div&gt;&lt;div style=&quot;font-size: 23px;&quot;&gt;&lt;font color=&quot;#ff0000&quot; style=&quot;font-size: 23px;&quot;&gt;分配节点&lt;/font&gt;&lt;/div&gt;" style="rounded=1;whiteSpace=wrap;html=1;fillColor=default;" parent="1" vertex="1">
          <mxGeometry x="10" y="490" width="200" height="60" as="geometry" />
        </mxCell>
        <mxCell id="tDF0fSocdjsi6N1dQKBj-10" style="edgeStyle=orthogonalEdgeStyle;rounded=0;orthogonalLoop=1;jettySize=auto;html=1;exitX=1;exitY=0.5;exitDx=0;exitDy=0;entryX=0;entryY=0.5;entryDx=0;entryDy=0;strokeWidth=3;" parent="1" source="tDF0fSocdjsi6N1dQKBj-6" target="tDF0fSocdjsi6N1dQKBj-8" edge="1">
          <mxGeometry relative="1" as="geometry" />
        </mxCell>
        <mxCell id="tDF0fSocdjsi6N1dQKBj-6" value="" style="rounded=0;whiteSpace=wrap;html=1;fillColor=#dae8fc;strokeColor=#6c8ebf;" parent="1" vertex="1">
          <mxGeometry x="280" y="315" width="640" height="365" as="geometry" />
        </mxCell>
        <mxCell id="tDF0fSocdjsi6N1dQKBj-7" value="&lt;b&gt;&lt;font color=&quot;#ff0000&quot; style=&quot;font-size: 23px;&quot;&gt;初始化阶段&lt;/font&gt;&lt;/b&gt;" style="rounded=0;whiteSpace=wrap;html=1;strokeColor=none;fillColor=none;" parent="1" vertex="1">
          <mxGeometry x="280" y="315" width="140" height="45" as="geometry" />
        </mxCell>
        <mxCell id="tDF0fSocdjsi6N1dQKBj-54" style="edgeStyle=orthogonalEdgeStyle;rounded=0;orthogonalLoop=1;jettySize=auto;html=1;exitX=1;exitY=0.5;exitDx=0;exitDy=0;entryX=0;entryY=0.5;entryDx=0;entryDy=0;strokeWidth=2;" parent="1" source="tDF0fSocdjsi6N1dQKBj-8" target="tDF0fSocdjsi6N1dQKBj-52" edge="1">
          <mxGeometry relative="1" as="geometry" />
        </mxCell>
        <mxCell id="tDF0fSocdjsi6N1dQKBj-8" value="" style="rounded=0;whiteSpace=wrap;html=1;fillColor=#d5e8d4;strokeColor=#82b366;" parent="1" vertex="1">
          <mxGeometry x="970" y="315" width="780" height="365" as="geometry" />
        </mxCell>
        <mxCell id="tDF0fSocdjsi6N1dQKBj-9" value="&lt;b&gt;&lt;font color=&quot;#ff0000&quot; style=&quot;font-size: 23px;&quot;&gt;运行阶段&lt;/font&gt;&lt;/b&gt;" style="rounded=0;whiteSpace=wrap;html=1;strokeColor=none;fillColor=none;" parent="1" vertex="1">
          <mxGeometry x="970" y="315" width="140" height="45" as="geometry" />
        </mxCell>
        <mxCell id="tDF0fSocdjsi6N1dQKBj-11" value="" style="rounded=0;whiteSpace=wrap;html=1;" parent="1" vertex="1">
          <mxGeometry x="510" y="380" width="380" height="270" as="geometry" />
        </mxCell>
        <mxCell id="tDF0fSocdjsi6N1dQKBj-12" value="&lt;font style=&quot;font-size: 23px;&quot;&gt;InitContainter-1&lt;/font&gt;" style="rounded=0;whiteSpace=wrap;html=1;fillColor=#ffe6cc;strokeColor=#d79b00;" parent="1" vertex="1">
          <mxGeometry x="530" y="445" width="170" height="65" as="geometry" />
        </mxCell>
        <mxCell id="tDF0fSocdjsi6N1dQKBj-14" value="&lt;font style=&quot;font-size: 23px;&quot;&gt;InitContainter-1&lt;/font&gt;" style="rounded=0;whiteSpace=wrap;html=1;fillColor=#ffe6cc;strokeColor=#d79b00;" parent="1" vertex="1">
          <mxGeometry x="710" y="445" width="170" height="65" as="geometry" />
        </mxCell>
        <mxCell id="tDF0fSocdjsi6N1dQKBj-16" value="&lt;font style=&quot;font-size: 23px;&quot;&gt;InitContainter-3&lt;/font&gt;" style="rounded=0;whiteSpace=wrap;html=1;fillColor=#ffe6cc;strokeColor=#d79b00;" parent="1" vertex="1">
          <mxGeometry x="530" y="530" width="170" height="65" as="geometry" />
        </mxCell>
        <mxCell id="tDF0fSocdjsi6N1dQKBj-17" value="&lt;font style=&quot;font-size: 23px;&quot;&gt;InitContainter-4&lt;/font&gt;" style="rounded=0;whiteSpace=wrap;html=1;fillColor=#ffe6cc;strokeColor=#d79b00;" parent="1" vertex="1">
          <mxGeometry x="710" y="530" width="170" height="65" as="geometry" />
        </mxCell>
        <mxCell id="tDF0fSocdjsi6N1dQKBj-18" value="&lt;font color=&quot;#ff0000&quot; style=&quot;font-size: 18px;&quot;&gt;按照yaml定义顺序初化（&lt;/font&gt;&lt;font size=&quot;1&quot; color=&quot;#ff0000&quot;&gt;&lt;b style=&quot;font-size: 21px;&quot;&gt;必须退出&lt;/b&gt;&lt;/font&gt;&lt;font color=&quot;#ff0000&quot; style=&quot;font-size: 18px;&quot;&gt;）&lt;br&gt;&lt;/font&gt;" style="rounded=0;whiteSpace=wrap;html=1;strokeColor=none;fillColor=none;" parent="1" vertex="1">
          <mxGeometry x="530" y="610" width="340" height="40" as="geometry" />
        </mxCell>
        <mxCell id="tDF0fSocdjsi6N1dQKBj-19" value="&lt;font style=&quot;font-size: 23px;&quot;&gt;拉取镜像&lt;/font&gt;" style="rounded=0;whiteSpace=wrap;html=1;" parent="1" vertex="1">
          <mxGeometry x="294" y="380" width="120" height="60" as="geometry" />
        </mxCell>
        <mxCell id="tDF0fSocdjsi6N1dQKBj-20" value="&lt;font style=&quot;font-size: 23px;&quot;&gt;&lt;b&gt;Init容器初始化&lt;br&gt;&lt;/b&gt;&lt;/font&gt;" style="rounded=0;whiteSpace=wrap;html=1;strokeColor=none;fillColor=none;" parent="1" vertex="1">
          <mxGeometry x="580" y="380" width="240" height="40" as="geometry" />
        </mxCell>
        <mxCell id="tDF0fSocdjsi6N1dQKBj-21" value="&lt;font size=&quot;1&quot;&gt;&lt;span style=&quot;font-size: 23px;&quot;&gt;启动pause容器&lt;/span&gt;&lt;/font&gt;" style="rounded=0;whiteSpace=wrap;html=1;" parent="1" vertex="1">
          <mxGeometry x="294" y="450" width="176" height="60" as="geometry" />
        </mxCell>
        <mxCell id="tDF0fSocdjsi6N1dQKBj-22" value="&lt;font size=&quot;1&quot;&gt;&lt;b&gt;&lt;font style=&quot;font-size: 23px;&quot;&gt;...&lt;/font&gt;&lt;/b&gt;&lt;/font&gt;" style="rounded=0;whiteSpace=wrap;html=1;" parent="1" vertex="1">
          <mxGeometry x="294" y="520" width="176" height="60" as="geometry" />
        </mxCell>
        <mxCell id="tDF0fSocdjsi6N1dQKBj-30" style="edgeStyle=orthogonalEdgeStyle;rounded=0;orthogonalLoop=1;jettySize=auto;html=1;exitX=0.5;exitY=1;exitDx=0;exitDy=0;entryX=0.5;entryY=0;entryDx=0;entryDy=0;strokeWidth=2;" parent="1" source="tDF0fSocdjsi6N1dQKBj-23" target="tDF0fSocdjsi6N1dQKBj-24" edge="1">
          <mxGeometry relative="1" as="geometry" />
        </mxCell>
        <mxCell id="tDF0fSocdjsi6N1dQKBj-23" value="&lt;div&gt;&lt;font style=&quot;font-size: 23px;&quot;&gt;启动容器&lt;/font&gt;&lt;/div&gt;&lt;font color=&quot;#ff0000&quot; style=&quot;font-size: 13px;&quot;&gt;容器command执行&lt;/font&gt;" style="rounded=0;whiteSpace=wrap;html=1;" parent="1" vertex="1">
          <mxGeometry x="990" y="370" width="170" height="60" as="geometry" />
        </mxCell>
        <mxCell id="tDF0fSocdjsi6N1dQKBj-24" value="&lt;div&gt;&lt;font size=&quot;1&quot;&gt;&lt;span style=&quot;font-size: 23px;&quot;&gt;postStart&lt;/span&gt;&lt;/font&gt;&lt;/div&gt;&lt;div&gt;&lt;font size=&quot;1&quot;&gt;&lt;span style=&quot;font-size: 23px;&quot;&gt;钩子函数启动&lt;/span&gt;&lt;/font&gt;&lt;/div&gt;" style="rounded=0;whiteSpace=wrap;html=1;fillColor=#d80073;strokeColor=#A50040;fontColor=#ffffff;" parent="1" vertex="1">
          <mxGeometry x="990" y="470" width="170" height="60" as="geometry" />
        </mxCell>
        <mxCell id="tDF0fSocdjsi6N1dQKBj-26" value="&lt;font style=&quot;font-size: 23px;&quot;&gt;&lt;font style=&quot;font-size: 23px;&quot;&gt;&lt;b&gt;容器们&lt;/b&gt;&lt;/font&gt;&lt;font style=&quot;font-size: 23px;&quot;&gt;&lt;br&gt;&lt;/font&gt;&lt;/font&gt;" style="rounded=0;whiteSpace=wrap;html=1;fillColor=#f8cecc;strokeColor=#b85450;" parent="1" vertex="1">
          <mxGeometry x="990" y="570" width="750" height="90" as="geometry" />
        </mxCell>
        <mxCell id="tDF0fSocdjsi6N1dQKBj-31" style="edgeStyle=orthogonalEdgeStyle;rounded=0;orthogonalLoop=1;jettySize=auto;html=1;exitX=0.5;exitY=1;exitDx=0;exitDy=0;entryX=0.114;entryY=0.025;entryDx=0;entryDy=0;entryPerimeter=0;strokeWidth=2;" parent="1" source="tDF0fSocdjsi6N1dQKBj-24" target="tDF0fSocdjsi6N1dQKBj-26" edge="1">
          <mxGeometry relative="1" as="geometry" />
        </mxCell>
        <mxCell id="tDF0fSocdjsi6N1dQKBj-32" value="&lt;div style=&quot;font-size: 23px;&quot;&gt;&lt;font style=&quot;font-size: 23px;&quot;&gt;startupProbe&lt;/font&gt;&lt;/div&gt;&lt;font style=&quot;font-size: 23px;&quot;&gt;&lt;font style=&quot;font-size: 23px;&quot;&gt;启动探针&lt;/font&gt;&lt;br&gt;&lt;/font&gt;" style="rounded=0;whiteSpace=wrap;html=1;" parent="1" vertex="1">
          <mxGeometry x="1190" y="470" width="170" height="60" as="geometry" />
        </mxCell>
        <mxCell id="tDF0fSocdjsi6N1dQKBj-33" value="&lt;div style=&quot;font-size: 23px;&quot;&gt;&lt;font style=&quot;font-size: 23px;&quot;&gt;livenessProbe&lt;/font&gt;&lt;/div&gt;&lt;font style=&quot;font-size: 23px;&quot;&gt;&lt;font style=&quot;font-size: 23px;&quot;&gt;存活探针&lt;/font&gt;&lt;br&gt;&lt;/font&gt;" style="rounded=0;whiteSpace=wrap;html=1;" parent="1" vertex="1">
          <mxGeometry x="1375" y="470" width="170" height="60" as="geometry" />
        </mxCell>
        <mxCell id="tDF0fSocdjsi6N1dQKBj-34" value="&lt;div style=&quot;font-size: 23px;&quot;&gt;&lt;font style=&quot;font-size: 23px;&quot;&gt;ReadinessProbe&lt;/font&gt;&lt;/div&gt;&lt;font style=&quot;font-size: 23px;&quot;&gt;&lt;font style=&quot;font-size: 23px;&quot;&gt;就绪探针&lt;/font&gt;&lt;br&gt;&lt;/font&gt;" style="rounded=0;whiteSpace=wrap;html=1;" parent="1" vertex="1">
          <mxGeometry x="1560" y="470" width="170" height="60" as="geometry" />
        </mxCell>
        <mxCell id="tDF0fSocdjsi6N1dQKBj-36" style="edgeStyle=orthogonalEdgeStyle;rounded=0;orthogonalLoop=1;jettySize=auto;html=1;exitX=0.5;exitY=1;exitDx=0;exitDy=0;strokeWidth=2;startArrow=classic;startFill=1;" parent="1" source="tDF0fSocdjsi6N1dQKBj-35" target="tDF0fSocdjsi6N1dQKBj-32" edge="1">
          <mxGeometry relative="1" as="geometry" />
        </mxCell>
        <mxCell id="tDF0fSocdjsi6N1dQKBj-37" style="edgeStyle=orthogonalEdgeStyle;rounded=0;orthogonalLoop=1;jettySize=auto;html=1;exitX=0.5;exitY=1;exitDx=0;exitDy=0;entryX=0.5;entryY=0;entryDx=0;entryDy=0;strokeWidth=2;startArrow=classic;startFill=1;" parent="1" source="tDF0fSocdjsi6N1dQKBj-35" target="tDF0fSocdjsi6N1dQKBj-33" edge="1">
          <mxGeometry relative="1" as="geometry" />
        </mxCell>
        <mxCell id="tDF0fSocdjsi6N1dQKBj-38" style="edgeStyle=orthogonalEdgeStyle;rounded=0;orthogonalLoop=1;jettySize=auto;html=1;exitX=0.5;exitY=1;exitDx=0;exitDy=0;strokeWidth=2;startArrow=classic;startFill=1;" parent="1" source="tDF0fSocdjsi6N1dQKBj-35" target="tDF0fSocdjsi6N1dQKBj-34" edge="1">
          <mxGeometry relative="1" as="geometry" />
        </mxCell>
        <mxCell id="tDF0fSocdjsi6N1dQKBj-35" value="&lt;font style=&quot;font-size: 24px;&quot;&gt;Status&lt;/font&gt;" style="rounded=0;whiteSpace=wrap;html=1;" parent="1" vertex="1">
          <mxGeometry x="1400" y="370" width="120" height="60" as="geometry" />
        </mxCell>
        <mxCell id="tDF0fSocdjsi6N1dQKBj-45" style="edgeStyle=orthogonalEdgeStyle;rounded=0;orthogonalLoop=1;jettySize=auto;html=1;exitX=0.5;exitY=1;exitDx=0;exitDy=0;entryX=0.627;entryY=0.015;entryDx=0;entryDy=0;entryPerimeter=0;startArrow=classic;startFill=1;strokeWidth=2;" parent="1" source="tDF0fSocdjsi6N1dQKBj-33" target="tDF0fSocdjsi6N1dQKBj-26" edge="1">
          <mxGeometry relative="1" as="geometry" />
        </mxCell>
        <mxCell id="tDF0fSocdjsi6N1dQKBj-47" style="edgeStyle=orthogonalEdgeStyle;rounded=0;orthogonalLoop=1;jettySize=auto;html=1;exitX=0.5;exitY=1;exitDx=0;exitDy=0;entryX=0.627;entryY=0.015;entryDx=0;entryDy=0;entryPerimeter=0;startArrow=classic;startFill=1;strokeWidth=2;" parent="1" source="tDF0fSocdjsi6N1dQKBj-32" target="tDF0fSocdjsi6N1dQKBj-26" edge="1">
          <mxGeometry relative="1" as="geometry" />
        </mxCell>
        <mxCell id="tDF0fSocdjsi6N1dQKBj-48" style="edgeStyle=orthogonalEdgeStyle;rounded=0;orthogonalLoop=1;jettySize=auto;html=1;exitX=0.5;exitY=1;exitDx=0;exitDy=0;entryX=0.627;entryY=0.015;entryDx=0;entryDy=0;entryPerimeter=0;startArrow=classic;startFill=1;strokeWidth=2;" parent="1" source="tDF0fSocdjsi6N1dQKBj-34" target="tDF0fSocdjsi6N1dQKBj-26" edge="1">
          <mxGeometry relative="1" as="geometry" />
        </mxCell>
        <mxCell id="tDF0fSocdjsi6N1dQKBj-52" value="" style="rounded=0;whiteSpace=wrap;html=1;fillColor=#e1d5e7;strokeColor=#9673a6;" parent="1" vertex="1">
          <mxGeometry x="1820" y="315" width="220" height="365" as="geometry" />
        </mxCell>
        <mxCell id="tDF0fSocdjsi6N1dQKBj-53" value="&lt;b&gt;&lt;font color=&quot;#ff0000&quot; style=&quot;font-size: 23px;&quot;&gt;终止阶段&lt;/font&gt;&lt;/b&gt;" style="rounded=0;whiteSpace=wrap;html=1;strokeColor=none;fillColor=none;" parent="1" vertex="1">
          <mxGeometry x="1820" y="317.5" width="140" height="45" as="geometry" />
        </mxCell>
        <mxCell id="tDF0fSocdjsi6N1dQKBj-55" value="&lt;div&gt;&lt;font size=&quot;1&quot;&gt;&lt;span style=&quot;font-size: 23px;&quot;&gt;postStart&lt;/span&gt;&lt;/font&gt;&lt;/div&gt;&lt;div&gt;&lt;font size=&quot;1&quot;&gt;&lt;span style=&quot;font-size: 23px;&quot;&gt;钩子函数启动&lt;/span&gt;&lt;/font&gt;&lt;/div&gt;" style="rounded=0;whiteSpace=wrap;html=1;fillColor=#d80073;strokeColor=#A50040;fontColor=#ffffff;" parent="1" vertex="1">
          <mxGeometry x="1830" y="450" width="170" height="60" as="geometry" />
        </mxCell>
        <mxCell id="tDF0fSocdjsi6N1dQKBj-56" value="delete" style="rounded=0;whiteSpace=wrap;html=1;fillColor=none;strokeColor=none;" parent="1" vertex="1">
          <mxGeometry x="1720" y="460" width="120" height="60" as="geometry" />
        </mxCell>
        <mxCell id="tDF0fSocdjsi6N1dQKBj-59" value="&lt;font size=&quot;1&quot;&gt;&lt;b&gt;&lt;font style=&quot;font-size: 23px;&quot;&gt;...&lt;/font&gt;&lt;/b&gt;&lt;/font&gt;" style="rounded=0;whiteSpace=wrap;html=1;" parent="1" vertex="1">
          <mxGeometry x="1830" y="360" width="176" height="60" as="geometry" />
        </mxCell>
        <mxCell id="tDF0fSocdjsi6N1dQKBj-60" value="&lt;font style=&quot;font-size: 23px;&quot;&gt;Pod终止删除&lt;/font&gt;" style="rounded=0;whiteSpace=wrap;html=1;" parent="1" vertex="1">
          <mxGeometry x="1830" y="550" width="176" height="60" as="geometry" />
        </mxCell>
        <mxCell id="tDF0fSocdjsi6N1dQKBj-61" value="&lt;font style=&quot;font-size: 24px;&quot;&gt;kubelet&lt;/font&gt;" style="rounded=0;whiteSpace=wrap;html=1;fillColor=#d0cee2;strokeColor=#56517e;" parent="1" vertex="1">
          <mxGeometry x="-70" y="240" width="2130" height="60" as="geometry" />
        </mxCell>
        <mxCell id="tDF0fSocdjsi6N1dQKBj-63" value="&lt;font size=&quot;1&quot;&gt;&lt;b&gt;&lt;font style=&quot;font-size: 33px;&quot; color=&quot;#ff0000&quot;&gt;Pod生命周期&lt;/font&gt;&lt;/b&gt;&lt;/font&gt;" style="rounded=0;whiteSpace=wrap;html=1;strokeColor=none;fillColor=none;" parent="1" vertex="1">
          <mxGeometry x="-70" y="140" width="240" height="70" as="geometry" />
        </mxCell>
        <mxCell id="tDF0fSocdjsi6N1dQKBj-66" value="" style="shape=doubleArrow;direction=south;whiteSpace=wrap;html=1;" parent="1" vertex="1">
          <mxGeometry x="1320" y="280" width="40" height="70" as="geometry" />
        </mxCell>
        <mxCell id="tDF0fSocdjsi6N1dQKBj-67" value="" style="shape=doubleArrow;direction=south;whiteSpace=wrap;html=1;" parent="1" vertex="1">
          <mxGeometry x="570" y="280" width="40" height="70" as="geometry" />
        </mxCell>
        <mxCell id="tDF0fSocdjsi6N1dQKBj-68" value="" style="shape=doubleArrow;direction=south;whiteSpace=wrap;html=1;" parent="1" vertex="1">
          <mxGeometry x="1950" y="280" width="40" height="70" as="geometry" />
        </mxCell>
        <mxCell id="oIpdF1B8DpBtZjyUvBmB-1" value="&lt;div style=&quot;font-size: 13px;&quot; align=&quot;left&quot;&gt;&lt;font style=&quot;font-size: 22px;&quot;&gt;ps：&lt;font color=&quot;#ff0000&quot;&gt;&lt;br&gt;&lt;/font&gt;&lt;/font&gt;&lt;/div&gt;&lt;div style=&quot;font-size: 13px;&quot; align=&quot;left&quot;&gt;&lt;font style=&quot;font-size: 22px;&quot;&gt;1.&lt;font color=&quot;#ff0000&quot;&gt;init容器不会一直运行，等它结束才代表初始化完成&lt;/font&gt;（否则会一直卡在这一步，不会容器容器）&lt;/font&gt;&lt;/div&gt;&lt;div style=&quot;font-size: 13px;&quot; align=&quot;left&quot;&gt;&lt;font style=&quot;font-size: 22px;&quot;&gt;2.启动容器也是按照yaml定义先后顺序&lt;br&gt;&lt;/font&gt;&lt;/div&gt;&lt;div style=&quot;font-size: 13px;&quot; align=&quot;left&quot;&gt;&lt;font style=&quot;font-size: 22px;&quot;&gt;3.一个postStart或PreStop或Probe探针只需要一个Action（exec或httpget或tcpsocket）&lt;br&gt;&lt;/font&gt;&lt;/div&gt;" style="rounded=0;whiteSpace=wrap;html=1;align=left;" vertex="1" parent="1">
          <mxGeometry x="-70" y="690" width="2130" height="110" as="geometry" />
        </mxCell>
      </root>
    </mxGraphModel>
  </diagram>
</mxfile>
